<?xml version="1.0" standalone="no"?>
<!DOCTYPE svg PUBLIC "-//W3C//DTD SVG 20010904//EN"
 "http://www.w3.org/TR/2001/REC-SVG-20010904/DTD/svg10.dtd">
<svg version="1.0" xmlns="http://www.w3.org/2000/svg"
 width="300.000000pt" height="402.000000pt" viewBox="0 0 300.000000 402.000000"
 preserveAspectRatio="xMidYMid meet">
<metadata>
Created by potrace 1.10, written by Peter Selinger 2001-2011
</metadata>
<g transform="translate(0.000000,402.000000) scale(0.100000,-0.100000)"
fill="#333333" stroke="none">
<path d="M359 4000 c-78 -23 -171 -75 -216 -122 -78 -82 -133 -219 -133 -334
0 -162 107 -336 251 -410 55 -27 156 -54 210 -54 58 0 175 35 235 71 201 121
275 388 169 605 -60 123 -161 204 -303 245 -82 23 -128 23 -213 -1z"/>
<path d="M1130 3959 c-91 -53 -103 -113 -98 -484 5 -317 7 -327 78 -388 l44
-37 346 0 c377 0 363 -2 418 59 46 52 52 103 52 410 0 303 -5 342 -47 397 -47
63 -56 64 -425 64 -317 0 -335 -1 -368 -21z"/>
<path d="M2131 3949 c-78 -56 -81 -69 -80 -429 0 -363 3 -380 77 -437 l44 -33
342 0 343 0 41 30 c77 55 77 55 80 415 4 342 0 371 -44 425 -51 60 -51 60
-422 60 l-339 0 -42 -31z"/>
<path d="M125 2958 c-38 -21 -73 -60 -90 -101 -9 -23 -21 -50 -26 -59 -5 -10
-9 -140 -9 -289 0 -250 2 -277 21 -328 24 -66 43 -92 90 -120 33 -20 47 -21
369 -21 329 0 336 1 375 23 24 14 50 40 65 67 l25 45 0 330 0 330 -27 45 c-15
27 -42 54 -66 68 -39 22 -46 22 -373 22 -224 -1 -341 -4 -354 -12z"/>
<path d="M1134 2951 c-94 -57 -107 -122 -102 -493 5 -291 8 -310 56 -361 54
-57 53 -57 415 -57 l333 0 46 29 c79 50 83 70 83 441 0 305 -1 316 -22 360
-14 28 -38 55 -65 73 l-42 27 -336 0 c-312 0 -337 -1 -366 -19z"/>
<path d="M2200 1971 c-69 -14 -121 -62 -140 -129 -14 -53 -13 -629 2 -673 18
-52 48 -87 93 -109 39 -19 62 -20 361 -20 366 0 379 3 431 81 l28 42 3 321 c4
347 0 380 -46 429 -57 60 -59 61 -392 63 -168 1 -321 -1 -340 -5z"/>
<path d="M136 1950 c-40 -12 -80 -54 -101 -103 -9 -23 -21 -50 -26 -59 -5 -10
-9 -140 -9 -289 0 -251 2 -276 21 -330 22 -61 67 -115 109 -131 35 -14 669
-12 706 3 39 14 62 37 88 84 20 39 21 52 21 370 l0 330 -25 43 c-13 24 -40 53
-60 65 -34 21 -44 22 -365 24 -181 1 -343 -2 -359 -7z"/>
<path d="M1153 1949 c-48 -14 -100 -81 -114 -147 -7 -36 -10 -151 -7 -341 3
-276 4 -288 27 -334 16 -33 36 -55 66 -72 l42 -25 332 0 c362 0 377 2 421 58
46 57 52 111 48 434 -3 260 -5 307 -20 333 -24 44 -70 84 -109 95 -43 13 -643
12 -686 -1z"/>
<path d="M136 940 c-44 -14 -76 -49 -107 -117 l-29 -63 0 -272 c0 -243 2 -279
19 -325 28 -78 58 -113 118 -139 53 -24 59 -24 351 -23 l297 1 50 26 c31 17
61 44 80 72 l30 45 0 335 0 335 -25 43 c-13 24 -40 53 -60 65 -34 21 -44 22
-365 24 -181 1 -343 -2 -359 -7z"/>
<path d="M1154 939 c-34 -10 -88 -64 -107 -108 -16 -37 -22 -584 -7 -654 16
-77 50 -122 115 -152 55 -25 56 -25 348 -25 291 0 294 0 344 25 58 28 96 72
112 130 18 64 15 599 -4 661 -17 58 -65 110 -116 124 -43 13 -642 12 -685 -1z"/>
</g>
</svg>
